<svg width="16" height="15" viewBox="0 0 16 15" fill="none" xmlns="http://www.w3.org/2000/svg">
<path d="M9.832 6.54475L7.2 9.15001L6.168 8.12369C6.01736 7.97503 5.81304 7.89151 5.6 7.89151C5.38696 7.89151 5.18264 7.97503 5.032 8.12369C4.88136 8.27235 4.79673 8.47398 4.79673 8.68422C4.79673 8.89446 4.88136 9.09608 5.032 9.24474L6.632 10.8237C6.70637 10.8977 6.79485 10.9564 6.89234 10.9965C6.98983 11.0366 7.09439 11.0572 7.2 11.0572C7.30561 11.0572 7.41017 11.0366 7.50766 10.9965C7.60515 10.9564 7.69363 10.8977 7.768 10.8237L10.968 7.6658C11.1186 7.51714 11.2033 7.31551 11.2033 7.10527C11.2033 6.89503 11.1186 6.69341 10.968 6.54475C10.8174 6.39609 10.613 6.31257 10.4 6.31257C10.187 6.31257 9.98264 6.39609 9.832 6.54475ZM13.6 2.36844H8.576L8.32 1.57896C8.15404 1.11572 7.8462 0.714888 7.43912 0.431986C7.03204 0.149085 6.54589 -0.0018765 6.048 1.76081e-05H2.4C1.76348 1.76081e-05 1.15303 0.249547 0.702944 0.693711C0.252856 1.13788 0 1.74029 0 2.36844V12.6316C0 13.2597 0.252856 13.8621 0.702944 14.3063C1.15303 14.7505 1.76348 15 2.4 15H13.6C14.2365 15 14.847 14.7505 15.2971 14.3063C15.7471 13.8621 16 13.2597 16 12.6316V4.73685C16 4.10871 15.7471 3.50629 15.2971 3.06213C14.847 2.61797 14.2365 2.36844 13.6 2.36844ZM14.4 12.6316C14.4 12.841 14.3157 13.0418 14.1657 13.1898C14.0157 13.3379 13.8122 13.4211 13.6 13.4211H2.4C2.18783 13.4211 1.98434 13.3379 1.83431 13.1898C1.68429 13.0418 1.6 12.841 1.6 12.6316V2.36844C1.6 2.15905 1.68429 1.95825 1.83431 1.81019C1.98434 1.66214 2.18783 1.57896 2.4 1.57896H6.048C6.21572 1.57854 6.37932 1.63014 6.5157 1.72647C6.65208 1.8228 6.75433 1.959 6.808 2.1158L7.24 3.41054C7.29367 3.56735 7.39592 3.70354 7.5323 3.79987C7.66868 3.89621 7.83228 3.94781 8 3.94738H13.6C13.8122 3.94738 14.0157 4.03056 14.1657 4.17861C14.3157 4.32667 14.4 4.52747 14.4 4.73685V12.6316Z" fill="#009BC9"/>
</svg>
