<svg width="16" height="15" viewBox="0 0 16 15" fill="none" xmlns="http://www.w3.org/2000/svg">
<path d="M9.6 7.89474H8.8V7.10527C8.8 6.89589 8.71571 6.69509 8.56569 6.54703C8.41566 6.39898 8.21217 6.3158 8 6.3158C7.78783 6.3158 7.58434 6.39898 7.43431 6.54703C7.28429 6.69509 7.2 6.89589 7.2 7.10527V7.89474H6.4C6.18783 7.89474 5.98434 7.97792 5.83431 8.12598C5.68429 8.27403 5.6 8.47484 5.6 8.68422C5.6 8.8936 5.68429 9.0944 5.83431 9.24246C5.98434 9.39051 6.18783 9.47369 6.4 9.47369H7.2V10.2632C7.2 10.4725 7.28429 10.6734 7.43431 10.8214C7.58434 10.9695 7.78783 11.0526 8 11.0526C8.21217 11.0526 8.41566 10.9695 8.56569 10.8214C8.71571 10.6734 8.8 10.4725 8.8 10.2632V9.47369H9.6C9.81217 9.47369 10.0157 9.39051 10.1657 9.24246C10.3157 9.0944 10.4 8.8936 10.4 8.68422C10.4 8.47484 10.3157 8.27403 10.1657 8.12598C10.0157 7.97792 9.81217 7.89474 9.6 7.89474ZM13.6 2.36844H8.576L8.32 1.57896C8.15404 1.11572 7.8462 0.714888 7.43912 0.431986C7.03204 0.149085 6.54589 -0.0018765 6.048 1.76081e-05H2.4C1.76348 1.76081e-05 1.15303 0.249547 0.702944 0.693711C0.252856 1.13788 0 1.74029 0 2.36844V12.6316C0 13.2597 0.252856 13.8621 0.702944 14.3063C1.15303 14.7505 1.76348 15 2.4 15H13.6C14.2365 15 14.847 14.7505 15.2971 14.3063C15.7471 13.8621 16 13.2597 16 12.6316V4.73685C16 4.10871 15.7471 3.50629 15.2971 3.06213C14.847 2.61797 14.2365 2.36844 13.6 2.36844ZM14.4 12.6316C14.4 12.841 14.3157 13.0418 14.1657 13.1898C14.0157 13.3379 13.8122 13.4211 13.6 13.4211H2.4C2.18783 13.4211 1.98434 13.3379 1.83431 13.1898C1.68429 13.0418 1.6 12.841 1.6 12.6316V2.36844C1.6 2.15905 1.68429 1.95825 1.83431 1.81019C1.98434 1.66214 2.18783 1.57896 2.4 1.57896H6.048C6.21572 1.57854 6.37932 1.63014 6.5157 1.72647C6.65208 1.8228 6.75433 1.959 6.808 2.1158L7.24 3.41054C7.29367 3.56735 7.39592 3.70354 7.5323 3.79987C7.66868 3.89621 7.83228 3.94781 8 3.94738H13.6C13.8122 3.94738 14.0157 4.03056 14.1657 4.17861C14.3157 4.32667 14.4 4.52747 14.4 4.73685V12.6316Z" fill="#009BC9"/>
</svg>
