<svg width="49" height="48" viewBox="0 0 49 48" fill="none" xmlns="http://www.w3.org/2000/svg">
<ellipse cx="24.025" cy="24" rx="24.025" ry="24" fill="white" fill-opacity="0.7"/>
<path fill-rule="evenodd" clip-rule="evenodd" d="M25.362 28.907C25.5234 29.0066 25.6371 29.0729 25.7032 29.1063C25.7699 29.139 25.8672 29.1796 25.9948 29.2266C26.1227 29.2739 26.2294 29.2975 26.3148 29.2975C26.4854 29.2975 26.7037 29.163 26.969 28.8928C27.2398 28.6166 27.4916 28.3224 27.7225 28.0121C27.9576 27.6969 28.2192 27.4022 28.5044 27.1313C28.7886 26.8615 29.0255 26.7267 29.2151 26.7267C29.3479 26.7267 29.4829 26.7597 29.6203 26.826C29.7579 26.8924 29.9261 26.9941 30.1254 27.1313C30.3243 27.2688 30.4429 27.3516 30.4806 27.3801C30.7175 27.5218 30.9712 27.6687 31.2416 27.8202C31.5116 27.9718 31.8127 28.1375 32.1445 28.3176C32.4022 28.4562 32.6581 28.5982 32.9121 28.7436C33.576 29.0748 33.9361 29.3259 33.9929 29.4964C34.0216 29.5632 34.0358 29.6627 34.0355 29.7955C34.0355 30.0513 33.9883 30.3849 33.8933 30.7968C33.7986 31.2089 33.6994 31.5331 33.5948 31.7698C33.3956 32.2434 32.8172 32.7452 31.8603 33.2757C30.9691 33.7583 30.0873 34 29.2154 34C28.9657 34.0002 28.7162 33.9836 28.4687 33.9504C28.2271 33.9169 27.9547 33.8578 27.6509 33.7726C27.3477 33.6872 27.1225 33.6185 26.9758 33.5664C26.8287 33.5142 26.5655 33.417 26.1866 33.2753C25.8075 33.1329 25.5751 33.0477 25.4898 33.0194C24.5608 32.688 23.7313 32.2949 23.0013 31.8405C21.7877 31.0924 20.5341 30.0718 19.24 28.7792C17.946 27.4867 16.9244 26.2343 16.1758 25.0223C15.7208 24.2931 15.3274 23.4646 14.9957 22.5365C14.9673 22.4513 14.8818 22.2193 14.7398 21.8403C14.6407 21.5784 14.5435 21.3157 14.4484 21.0523C14.3964 20.9056 14.3276 20.6806 14.2423 20.3775C14.1569 20.0745 14.0975 19.8022 14.0644 19.5607C14.0308 19.3135 14.0142 19.0644 14.0147 18.815C14.0147 17.9439 14.2563 17.0631 14.7398 16.173C15.2707 15.2167 15.7732 14.6393 16.2472 14.4404C16.4841 14.3361 16.8087 14.2368 17.2212 14.1422C17.6336 14.0473 17.9678 14 18.2238 14C18.3564 14 18.456 14.0144 18.5223 14.0428C18.6931 14.0995 18.9442 14.4594 19.276 15.1222C19.3804 15.3021 19.5225 15.5579 19.7026 15.8891C19.8664 16.1909 20.0322 16.4916 20.2003 16.7911C20.3437 17.0464 20.4906 17.2997 20.641 17.5509C20.6695 17.589 20.7524 17.7071 20.8899 17.906C21.0276 18.1049 21.1294 18.2728 21.1957 18.4104C21.262 18.5477 21.2953 18.6826 21.2953 18.8151C21.2953 19.0047 21.16 19.2411 20.8899 19.5254C20.6188 19.8103 20.3239 20.0716 20.0083 20.3064C19.6978 20.5371 19.4033 20.7886 19.1268 21.0591C18.8567 21.3242 18.7214 21.5421 18.7214 21.7125C18.7214 21.7977 18.7453 21.9043 18.7926 22.0321C18.8398 22.1599 18.8802 22.2569 18.9133 22.3231C18.9465 22.3897 19.0128 22.5031 19.1124 22.6642C19.2119 22.8253 19.2666 22.915 19.276 22.9341C19.9964 24.2313 20.8213 25.3441 21.7501 26.2722C22.6792 27.2 23.7932 28.0239 25.0919 28.7436C25.1107 28.7531 25.2007 28.8077 25.362 28.907Z" fill="#31496D"/>
</svg>
