<svg width="14" height="14" viewBox="0 0 14 14" fill="none" xmlns="http://www.w3.org/2000/svg">
<path fill-rule="evenodd" clip-rule="evenodd" d="M13.7071 1.70712C14.0977 1.3166 14.0977 0.683433 13.7071 0.292908C13.3166 -0.0976158 12.6834 -0.0976158 12.2929 0.292908L7.00003 5.5858L1.70714 0.292908C1.31661 -0.0976158 0.683448 -0.0976158 0.292924 0.292908C-0.0976006 0.683433 -0.0976006 1.3166 0.292924 1.70712L5.58582 7.00002L0.292924 12.2929C-0.0976006 12.6834 -0.0976006 13.3166 0.292924 13.7071C0.683448 14.0976 1.31661 14.0976 1.70714 13.7071L7.00003 8.41423L12.2929 13.7071C12.6834 14.0976 13.3166 14.0976 13.7071 13.7071C14.0977 13.3166 14.0977 12.6834 13.7071 12.2929L8.41424 7.00002L13.7071 1.70712Z" fill="#009BC9"/>
</svg>
