<svg width="26" height="20" viewBox="0 0 26 20" fill="none" xmlns="http://www.w3.org/2000/svg">
<path fill-rule="evenodd" clip-rule="evenodd" d="M25.9212 4.279L23.0192 13.163C22.8152 13.787 22.2212 14.202 21.5422 14.202H10.3232C9.68023 14.202 9.05324 13.816 8.82923 13.236L4.55523 2.104H2.07623C1.47623 2.104 0.990234 1.629 0.990234 1.052C0.990234 0.475 1.47623 0 2.07623 0H5.30523C5.75623 0 6.16423 0.301 6.32423 0.707L10.7562 12.098H21.0842L23.4052 4.997H10.6042C10.0052 4.997 9.51823 4.522 9.51823 3.945C9.51823 3.368 10.0052 2.894 10.6042 2.894H24.8852C25.2312 2.894 25.5562 3.071 25.7612 3.339C25.9652 3.607 26.0252 3.961 25.9212 4.279ZM10.8762 15.607C10.4122 15.607 9.95623 15.787 9.62723 16.103C9.46531 16.2587 9.33622 16.4453 9.2476 16.6518C9.15898 16.8582 9.11261 17.0803 9.11123 17.305C9.11123 17.751 9.29923 18.19 9.62723 18.506C9.96457 18.8248 10.4111 19.0024 10.8752 19.0024C11.3394 19.0024 11.7859 18.8248 12.1232 18.506C12.4512 18.19 12.6412 17.751 12.6412 17.305C12.6412 16.858 12.4512 16.419 12.1232 16.103C11.7865 15.784 11.3401 15.6064 10.8762 15.607ZM20.6222 15.607C20.1552 15.607 19.7012 15.787 19.3732 16.103C19.2111 16.2586 19.0819 16.4452 18.9933 16.6516C18.9046 16.8581 18.8584 17.0803 18.8572 17.305C18.8572 17.751 19.0442 18.19 19.3732 18.506C19.7105 18.8255 20.1577 19.0031 20.6222 19.002C21.0862 19.002 21.5402 18.822 21.8682 18.506C22.0307 18.3507 22.1603 18.1644 22.2495 17.9581C22.3386 17.7518 22.3855 17.5297 22.3872 17.305C22.3872 16.858 22.1972 16.419 21.8682 16.103C21.5318 15.784 21.0858 15.6065 20.6222 15.607Z" fill="white" fill-opacity="0.5"/>
</svg>
