<svg width="22" height="17" viewBox="0 0 22 17" fill="none" xmlns="http://www.w3.org/2000/svg">
<path fill-rule="evenodd" clip-rule="evenodd" d="M1.96213 8.27275C2.06373 8.44938 2.2017 8.6797 2.37496 8.94797C2.79545 9.59905 3.41824 10.465 4.22705 11.3278C5.86018 13.0698 8.15107 14.6955 10.9933 14.6955C13.8355 14.6955 16.1264 13.0698 17.7596 11.3278C18.5684 10.465 19.1912 9.59905 19.6117 8.94797C19.7849 8.6797 19.9229 8.44938 20.0245 8.27275C19.9229 8.09612 19.7849 7.86581 19.6117 7.59753C19.1912 6.94645 18.5684 6.08047 17.7596 5.21774C16.1264 3.47573 13.8355 1.85002 10.9933 1.85002C8.15107 1.85002 5.86018 3.47573 4.22705 5.21774C3.41824 6.08047 2.79545 6.94645 2.37496 7.59753C2.2017 7.86581 2.06373 8.09612 1.96213 8.27275ZM20.9933 8.27275C21.7536 7.89262 21.7534 7.89233 21.7533 7.89202L21.7519 7.8892L21.7488 7.88314L21.7386 7.86325C21.7301 7.84658 21.7179 7.82319 21.7022 7.79351C21.6708 7.73417 21.6252 7.64965 21.5655 7.54353C21.4462 7.33141 21.2704 7.03234 21.0397 6.67524C20.5795 5.96269 19.8955 5.01049 18.9998 4.05504C17.2238 2.16068 14.5147 0.150024 10.9933 0.150024C7.47191 0.150024 4.7628 2.16068 2.98684 4.05504C2.09111 5.01049 1.40708 5.96269 0.946891 6.67524C0.716267 7.03234 0.540469 7.33141 0.42115 7.54353C0.361459 7.64965 0.315807 7.73417 0.284406 7.79351C0.268703 7.82319 0.256555 7.84658 0.247988 7.86325L0.237825 7.88314L0.234762 7.8892L0.233736 7.89125C0.233578 7.89156 0.233047 7.89262 0.993311 8.27275L0.233047 7.89262C0.113398 8.13192 0.113398 8.41359 0.233047 8.65288L0.993311 8.27275C0.233047 8.65288 0.232889 8.65257 0.233047 8.65288L0.234762 8.6563L0.237825 8.66236L0.247988 8.68226C0.256555 8.69892 0.268703 8.72231 0.284406 8.75199C0.315807 8.81133 0.361459 8.89586 0.42115 9.00197C0.540469 9.2141 0.716267 9.51317 0.946891 9.87026C1.40708 10.5828 2.09111 11.535 2.98684 12.4905C4.7628 14.3848 7.47191 16.3955 10.9933 16.3955C14.5147 16.3955 17.2238 14.3848 18.9998 12.4905C19.8955 11.535 20.5795 10.5828 21.0397 9.87026C21.2704 9.51317 21.4462 9.2141 21.5655 9.00197C21.6252 8.89586 21.6708 8.81133 21.7022 8.75199C21.7179 8.72231 21.7301 8.69892 21.7386 8.68226L21.7488 8.66236L21.7519 8.6563L21.7529 8.65426C21.753 8.65394 21.7536 8.65288 20.9933 8.27275ZM20.9933 8.27275L21.7536 8.65288C21.8732 8.41359 21.8729 8.13131 21.7533 7.89202L20.9933 8.27275ZM20.2334 8.65365C20.2335 8.65378 20.2335 8.65374 20.2334 8.65365V8.65365ZM20.2334 7.89191C20.2334 7.89182 20.2335 7.89178 20.2334 7.89191V7.89191Z" fill="#0499C5"/>
<path fill-rule="evenodd" clip-rule="evenodd" d="M10.9933 6.3955C9.9565 6.3955 9.11602 7.23598 9.11602 8.27277C9.11602 9.30956 9.9565 10.15 10.9933 10.15C12.0301 10.15 12.8706 9.30956 12.8706 8.27277C12.8706 7.23598 12.0301 6.3955 10.9933 6.3955ZM7.41602 8.27277C7.41602 6.2971 9.01762 4.6955 10.9933 4.6955C12.969 4.6955 14.5706 6.2971 14.5706 8.27277C14.5706 10.2484 12.969 11.85 10.9933 11.85C9.01762 11.85 7.41602 10.2484 7.41602 8.27277Z" fill="#0499C5"/>
</svg>
