<svg width="20" height="21" viewBox="0 0 20 21" fill="none" xmlns="http://www.w3.org/2000/svg">
<path d="M1.30459 1.38881C-0.262557 3.01663 0.0581852 4.74581 0.0581852 9.99902C0.0581852 14.3615 -0.702955 18.7347 3.28057 19.7642C4.52448 20.0841 15.5461 20.0841 16.7883 19.7626C18.4469 19.3346 19.7963 17.9893 19.9808 15.6436C20.0065 15.3162 20.0065 4.68765 19.98 4.35361C19.7838 1.85497 18.2458 0.414952 16.2191 0.123292C15.7546 0.0559858 15.6616 0.0360433 13.2784 0.0318886C4.82528 0.0360433 2.97229 -0.340373 1.30459 1.38881Z" fill="url(#paint0_linear_19_1326)"/>
<path d="M10.0279 2.64016C7.01076 2.64016 4.14568 2.37177 3.05133 5.18034C2.5993 6.34033 2.66495 7.84683 2.66495 10.0039C2.66495 11.8968 2.60429 13.6759 3.05133 14.8267C4.14319 17.637 7.03153 17.3677 10.0262 17.3677C12.9154 17.3677 15.8943 17.6685 17.002 14.8267C17.4548 13.6551 17.3884 12.171 17.3884 10.0039C17.3884 7.12723 17.5471 5.27008 16.1519 3.87577C14.7393 2.46317 12.829 2.64016 10.0246 2.64016H10.0279ZM9.36813 3.96717C15.6617 3.9572 16.4627 3.25755 16.0206 12.977C15.8636 16.4146 13.2461 16.0374 10.0287 16.0374C4.1623 16.0374 3.99362 15.8695 3.99362 10.0006C3.99362 4.06356 4.45894 3.9705 9.36813 3.96551V3.96717ZM13.9582 5.18948C13.4705 5.18948 13.075 5.58501 13.075 6.07277C13.075 6.56053 13.4705 6.95606 13.9582 6.95606C14.446 6.95606 14.8415 6.56053 14.8415 6.07277C14.8415 5.58501 14.446 5.18948 13.9582 5.18948ZM10.0279 6.22234C7.93975 6.22234 6.24712 7.9158 6.24712 10.0039C6.24712 12.0921 7.93975 13.7847 10.0279 13.7847C12.116 13.7847 13.8078 12.0921 13.8078 10.0039C13.8078 7.9158 12.116 6.22234 10.0279 6.22234ZM10.0279 7.54935C13.2727 7.54935 13.2769 12.4585 10.0279 12.4585C6.78391 12.4585 6.77893 7.54935 10.0279 7.54935Z" fill="white"/>
<defs>
<linearGradient id="paint0_linear_19_1326" x1="1.34283" y1="18.7007" x2="19.8773" y2="2.65933" gradientUnits="userSpaceOnUse">
<stop stop-color="#FFDD55"/>
<stop offset="0.5" stop-color="#FF543E"/>
<stop offset="1" stop-color="#C837AB"/>
</linearGradient>
</defs>
</svg>
