<svg width="180" height="53" viewBox="0 0 180 53" fill="none" xmlns="http://www.w3.org/2000/svg">
<path d="M10.4 36.9906L0 29.0356V28.2401C0 22.97 5.3 20.5835 10.2 18.2964C13.9 16.5066 18.2 14.5178 18.2 12.2308H22C22 16.9043 16.9 19.3902 11.9 21.6773C8.3 23.3677 4.5 25.1576 3.9 27.3452L10.6 32.5159L18.2 27.2458V21.379H22V29.2345L10.4 36.9906ZM3.8 17.7992H0C0 13.1257 5.1 10.6398 10.1 8.35272C13.1 6.9606 16.3 5.46904 17.5 3.77861H3.8V8.84991H0V0H22V0.894934C22 7.25891 16.7 9.44653 11.8 11.7336C8 13.5235 3.8 15.5122 3.8 17.7992Z" fill="#009BC8"/>
<path d="M81.3998 22.7711C80.2998 24.7598 77.6998 25.3565 75.7998 25.3565H75.3998C72.7998 25.3565 69.2998 24.4615 69.2998 20.5835V20.3846H87.6998V17.0038C87.6998 10.3415 83.9998 6.9606 76.7998 6.9606H74.2998C67.0998 6.9606 63.3998 10.3415 63.3998 17.0038V19.3902C63.3998 26.0525 67.0998 29.4334 74.2998 29.4334H76.7998C81.8998 29.4334 85.2998 27.6435 86.6998 24.2627L81.3998 22.7711ZM69.2998 15.9099C69.2998 12.0319 72.7998 11.137 75.3998 11.137H75.7998C78.3998 11.137 81.8998 12.0319 81.8998 15.9099V16.9043H69.2998V15.9099ZM51.0998 14.3189L62.1998 29.0356H55.5998L46.5998 16.9043L40.3998 16.8049V29.0356H34.2998V0H40.3998V12.0319H46.2998L55.1998 0H61.4998L51.0998 14.3189ZM106 12.0319H103.7C101.5 12.0319 97.8998 12.2308 97.8998 16.0094V29.0356H91.9998V17.1032C91.9998 12.728 93.6998 7.45779 102.4 7.45779H106V12.0319ZM133.6 29.0356H127.8V16.0094C127.8 12.2308 124.2 12.0319 122 12.0319H116.6V29.0356H110.8V7.65666C110.8 7.65666 117.7 7.45779 123.3 7.45779C132.1 7.45779 133.7 12.728 133.7 17.1032L133.6 29.0356ZM180 12.0319H177.7C176.919 11.9774 176.135 12.0816 175.396 12.338C174.656 12.5944 173.977 12.9977 173.4 13.5235C172.862 14.1322 172.453 14.8417 172.195 15.6101C171.938 16.3786 171.837 17.1905 171.9 17.9981V29.0356H166V16.4071C165.937 15.1831 166.146 13.9603 166.613 12.8259C167.079 11.6915 167.792 10.6734 168.7 9.84428C170.5 8.25328 173.1 7.45779 176.4 7.45779H180V12.0319ZM155.6 22.7711C154.5 24.7598 151.9 25.3565 150 25.3565H149.6C147 25.3565 143.5 24.4615 143.5 20.5835V20.3846H161.9V17.0038C161.9 10.3415 158.2 6.9606 151 6.9606H148.5C141.3 6.9606 137.6 10.3415 137.6 17.0038V19.3902C137.6 26.0525 141.3 29.4334 148.5 29.4334H151C156.1 29.4334 159.5 27.6435 160.9 24.2627L155.6 22.7711ZM143.5 15.9099C143.5 12.0319 147 11.137 149.6 11.137H150C152.6 11.137 156.1 12.0319 156.1 15.9099V16.9043H143.5V15.9099ZM44.9998 42.9568V49.3208H43.8998V43.2552C43.8998 42.0619 43.5998 41.5647 42.7998 41.5647C41.9998 41.5647 41.4998 42.0619 40.3998 43.0563V49.4203H39.2998V43.3546C39.2998 42.1614 38.8998 41.6642 38.1998 41.6642C37.4998 41.6642 36.8998 42.0619 35.8998 43.1557V49.5197H34.7998V40.9681H35.6998L35.7998 42.3602C36.1376 41.9011 36.5721 41.5209 37.073 41.2461C37.5739 40.9713 38.1291 40.8086 38.6998 40.7692C38.9237 40.7531 39.1486 40.7817 39.3612 40.8534C39.5738 40.9251 39.7698 41.0385 39.9376 41.1868C40.1054 41.3351 40.2416 41.5154 40.3382 41.7169C40.4348 41.9185 40.4897 42.1372 40.4998 42.3602C40.8264 41.9127 41.2449 41.5395 41.7276 41.2652C42.2104 40.9908 42.7463 40.8218 43.2998 40.7692C44.3998 40.5704 44.9998 41.4653 44.9998 42.9568ZM53.1998 43.2552V49.4203H52.2998L52.1998 48.0281C51.8675 48.4927 51.4343 48.877 50.9322 49.1524C50.4302 49.4278 49.8723 49.5874 49.2998 49.6191C48.0998 49.6191 47.2998 48.8236 47.2998 47.3321V46.3377C47.2632 46.0719 47.2854 45.8013 47.3651 45.545C47.4447 45.2886 47.5798 45.0527 47.7608 44.8537C47.9419 44.6547 48.1645 44.4976 48.413 44.3932C48.6616 44.2888 48.9302 44.2398 49.1998 44.2495H52.1998V43.3546C52.1998 42.2608 51.8998 41.6642 50.7998 41.6642C49.9998 41.6642 48.8998 41.7636 47.7998 41.863L47.6998 41.0675C48.7857 40.8372 49.8901 40.7041 50.9998 40.6698C52.3998 40.5704 53.1998 41.2664 53.1998 43.2552ZM51.9998 47.1332V44.9456H49.2998C48.5998 44.9456 48.3998 45.4428 48.3998 46.2383V46.9343C48.3998 47.9287 48.7998 48.3265 49.4998 48.3265C49.9845 48.3576 50.469 48.2642 50.9069 48.0552C51.3447 47.8462 51.7211 47.5287 51.9998 47.1332ZM60.8998 40.9681L60.6998 41.7636C60.0698 41.6834 59.4347 41.6502 58.7998 41.6642C57.0998 41.6642 56.4998 42.4597 56.4998 45.1445C56.4998 47.8293 57.0998 48.6248 58.7998 48.6248C59.4723 48.6436 60.1444 48.5768 60.7998 48.4259L60.8998 49.2214C60.1551 49.4583 59.3812 49.5921 58.5998 49.6191C56.1998 49.6191 55.2998 48.4259 55.2998 45.1445C55.2998 41.863 56.1998 40.6698 58.5998 40.6698C59.3795 40.5718 60.1715 40.6745 60.8998 40.9681ZM69.0998 42.9568V49.3208H67.9998V43.2552C67.9998 42.0619 67.6998 41.5647 66.8998 41.5647C66.0998 41.5647 65.2998 42.0619 64.1998 43.0563V49.4203H62.9998V36.9906H64.0998V40.5704C64.1194 41.1357 64.0859 41.7016 63.9998 42.2608C64.789 41.3538 65.8992 40.784 67.0998 40.6698C68.3998 40.5704 69.0998 41.4653 69.0998 42.9568ZM72.4998 37.2889C72.5535 37.2844 72.6075 37.2916 72.6581 37.31C72.7087 37.3283 72.7547 37.3575 72.7928 37.3954C72.8309 37.4332 72.8602 37.4789 72.8787 37.5293C72.8972 37.5796 72.9044 37.6333 72.8998 37.6867V38.6811C72.9044 38.7344 72.8972 38.7882 72.8787 38.8385C72.8602 38.8888 72.8309 38.9345 72.7928 38.9724C72.7547 39.0102 72.7087 39.0394 72.6581 39.0578C72.6075 39.0762 72.5535 39.0833 72.4998 39.0788H71.9998C71.7998 39.0788 71.6998 38.9794 71.6998 38.6811V37.6867C71.6998 37.4878 71.7998 37.2889 71.9998 37.2889H72.4998ZM71.6998 49.3208V40.7692H72.7998V49.3208H71.6998ZM81.5998 42.9568V49.3208H80.4998V43.2552C80.4998 42.0619 80.1998 41.5647 79.4998 41.5647C78.7998 41.5647 77.8998 42.0619 76.7998 43.0563V49.4203H75.6998V40.8687H76.6998L76.7998 42.2608C77.6025 41.371 78.7055 40.8049 79.8998 40.6698C80.8998 40.5704 81.5998 41.4653 81.5998 42.9568ZM89.5998 48.4259L89.6998 49.2214C88.831 49.5136 87.9165 49.6484 86.9998 49.6191C84.5998 49.6191 83.6998 48.4259 83.6998 45.1445C83.6998 41.863 84.5998 40.6698 86.8998 40.6698C88.9998 40.6698 89.7998 41.5647 89.7998 43.3546C89.7998 44.8462 89.2998 45.7411 88.1998 45.7411H84.9998C85.0998 48.0281 85.6998 48.7242 87.1998 48.7242C87.9998 48.6248 88.9998 48.5253 89.5998 48.4259ZM84.9998 44.7467H87.9998C88.5998 44.7467 88.7998 44.1501 88.7998 43.2552C88.7998 42.0619 88.2998 41.5647 86.9998 41.5647C85.4998 41.5647 84.9998 42.3602 84.9998 44.7467ZM97.2998 40.8687L97.1998 41.6642C96.3357 41.5833 95.4677 41.5501 94.5998 41.5647C93.2998 41.5647 92.8998 41.5647 92.8998 42.9568C92.8998 43.9512 93.1998 44.2495 93.8998 44.349L95.9998 44.8462C97.0998 45.1445 97.5998 45.7411 97.5998 47.1332C97.5998 49.2214 96.5998 49.5197 94.5998 49.5197C93.6958 49.5298 92.7925 49.4632 91.8998 49.3208L91.9998 48.5253C92.7966 48.6124 93.5985 48.6456 94.3998 48.6248C95.9998 48.6248 96.4998 48.4259 96.4998 47.1332C96.4998 46.1388 96.0998 45.94 95.3998 45.7411L93.3998 45.2439C92.2998 44.9456 91.7998 44.349 91.7998 42.9568C91.7998 40.8687 92.5998 40.5704 94.4998 40.6698C95.4376 40.6369 96.3762 40.7036 97.2998 40.8687ZM122 40.8687L121.9 41.6642C121.036 41.5833 120.168 41.5501 119.3 41.5647C118 41.5647 117.6 41.5647 117.6 42.9568C117.6 43.9512 117.9 44.2495 118.6 44.349L120.7 44.8462C121.8 45.1445 122.3 45.7411 122.3 47.1332C122.3 49.2214 121.3 49.5197 119.3 49.5197C118.396 49.5298 117.492 49.4632 116.6 49.3208L116.7 48.5253C117.497 48.6124 118.298 48.6456 119.1 48.6248C120.7 48.6248 121.2 48.4259 121.2 47.1332C121.2 46.1388 120.8 45.94 120.1 45.7411L118.1 45.2439C117 44.9456 116.5 44.349 116.5 42.9568C116.5 40.8687 117.3 40.5704 119.2 40.6698C120.138 40.6369 121.076 40.7036 122 40.8687ZM130.2 49.3208H129.3L129.2 48.0281C128.825 48.4631 128.367 48.8191 127.851 49.0753C127.336 49.3314 126.775 49.4825 126.2 49.5197C125 49.5197 124.3 48.7242 124.3 47.2326V40.8687H125.4V46.9343C125.4 48.1276 125.7 48.6248 126.5 48.6248C127.3 48.6248 128 48.1276 129 47.2326V40.8687H130.1L130.2 49.3208ZM139.2 45.1445C139.2 48.4259 138.4 49.6191 136.6 49.6191C135.658 49.6106 134.745 49.2963 134 48.7242C134.083 49.2837 134.116 49.8493 134.1 50.4146V53H133V40.8687H133.9L134 42.2608C134.338 41.8017 134.772 41.4215 135.273 41.1467C135.774 40.8719 136.329 40.7091 136.9 40.6698C138.5 40.5704 139.2 42.0619 139.2 45.1445ZM138 45.1445C138 42.5591 137.6 41.6642 136.4 41.6642C135.6 41.6642 134.9 42.1614 134 43.1557V48.0281C134.711 48.3993 135.497 48.6034 136.3 48.6248C137.5 48.6248 138 47.8293 138 45.1445ZM147.8 45.1445C147.8 48.4259 147 49.6191 145.2 49.6191C144.258 49.6106 143.345 49.2963 142.6 48.7242C142.683 49.2837 142.716 49.8493 142.7 50.4146V53H141.6V40.8687H142.5L142.6 42.2608C142.938 41.8017 143.372 41.4215 143.873 41.1467C144.374 40.8719 144.929 40.7091 145.5 40.6698C147.1 40.5704 147.8 42.0619 147.8 45.1445ZM146.6 45.1445C146.6 42.5591 146.2 41.6642 145 41.6642C144.2 41.6642 143.5 42.1614 142.6 43.1557V48.0281C143.311 48.3993 144.097 48.6034 144.9 48.6248C146.1 48.6248 146.6 47.8293 146.6 45.1445ZM151.2 47.2326C151.2 48.0281 151.5 48.4259 152.2 48.4259H152.9L153 49.2214C152.609 49.336 152.206 49.4028 151.8 49.4203C150.8 49.4203 150.1 48.7242 150.1 47.3321V36.9906H151.2V47.2326ZM155.5 37.2889C155.553 37.2844 155.608 37.2916 155.658 37.31C155.709 37.3283 155.755 37.3575 155.793 37.3954C155.831 37.4332 155.86 37.4789 155.879 37.5293C155.897 37.5796 155.904 37.6333 155.9 37.6867V38.6811C155.904 38.7344 155.897 38.7882 155.879 38.8385C155.86 38.8888 155.831 38.9345 155.793 38.9724C155.755 39.0102 155.709 39.0394 155.658 39.0578C155.608 39.0762 155.553 39.0833 155.5 39.0788H155C154.8 39.0788 154.7 38.9794 154.7 38.6811V37.6867C154.7 37.4878 154.8 37.2889 155 37.2889H155.5ZM154.7 49.3208V40.7692H155.8V49.3208H154.7ZM164 48.4259L164.1 49.2214C163.231 49.5136 162.316 49.6484 161.4 49.6191C159 49.6191 158.1 48.4259 158.1 45.1445C158.1 41.863 159 40.6698 161.3 40.6698C163.4 40.6698 164.2 41.5647 164.2 43.3546C164.2 44.8462 163.7 45.7411 162.6 45.7411H159.3C159.4 48.0281 160 48.7242 161.5 48.7242C162.4 48.6248 163.3 48.5253 164 48.4259ZM159.4 44.7467H162.4C163 44.7467 163.2 44.1501 163.2 43.2552C163.2 42.0619 162.7 41.5647 161.4 41.5647C159.9 41.5647 159.4 42.3602 159.4 44.7467ZM171.7 40.8687L171.6 41.6642C170.736 41.5833 169.868 41.5501 169 41.5647C167.7 41.5647 167.3 41.5647 167.3 42.9568C167.3 43.9512 167.6 44.2495 168.3 44.349L170.4 44.8462C171.5 45.1445 172 45.7411 172 47.1332C172 49.2214 171 49.5197 169 49.5197C168.096 49.5298 167.192 49.4632 166.3 49.3208L166.4 48.5253C167.197 48.6124 167.998 48.6456 168.8 48.6248C170.4 48.6248 170.9 48.4259 170.9 47.1332C170.9 46.1388 170.5 45.94 169.8 45.7411L167.8 45.2439C166.7 44.9456 166.2 44.349 166.2 42.9568C166.2 40.8687 167 40.5704 168.9 40.6698C169.838 40.6404 170.776 40.7071 171.7 40.8687ZM110 47.7298C110.11 46.8353 110.077 45.929 109.9 45.045H108.9C109.031 45.5992 109.098 46.1663 109.1 46.7355L105.7 42.8574C105.4 42.5591 105.3 42.2608 105.3 41.3659C105.3 39.4765 106 39.3771 106.8 39.3771C107.6 39.3771 107.9 39.576 108.1 39.9737C108.259 40.28 108.328 40.6246 108.3 40.9681H109.2C109.262 40.4073 109.12 39.8427 108.8 39.3771C108.4 38.7805 107.9 38.5816 106.6 38.5816C104.7 38.5816 104.1 39.2777 104.1 41.3659C104.038 42.2656 104.324 43.1547 104.9 43.8518H104.7C103.5 43.9512 103.2 45.1445 103.2 46.8349C103.2 48.9231 104 49.818 106.4 49.818C108 49.818 108.8 49.5197 109.2 48.8236C109.387 49.0756 109.554 49.3416 109.7 49.6191H110.8C111 48.9231 110 47.7298 110 47.7298ZM106.8 48.7242C105.2 48.7242 104.5 48.1276 104.5 46.5366C104.5 45.2439 104.7 44.6473 105.2 44.349C105.3 44.349 105.4 44.2495 105.5 44.2495L108.7 47.8293C108.6 48.4259 107.9 48.7242 106.8 48.7242Z" fill="#0F385A"/>
</svg>
