<svg width="35" height="35" viewBox="0 0 35 35" fill="none" xmlns="http://www.w3.org/2000/svg">
<path fill-rule="evenodd" clip-rule="evenodd" d="M22.8191 16.6819C22.8191 19.7653 20.2287 22.3639 16.9095 22.3639C13.5903 22.3639 11 19.7653 11 16.6819C11 13.5985 13.5903 11 16.9095 11C20.2287 11 22.8191 13.5985 22.8191 16.6819ZM21.4542 22.97C20.1684 23.8482 18.601 24.3639 16.9095 24.3639C12.5412 24.3639 9 20.9245 9 16.6819C9 12.4393 12.5412 9 16.9095 9C21.2779 9 24.8191 12.4393 24.8191 16.6819C24.8191 18.5706 24.1173 20.3001 22.9532 21.6378L26.9989 25.567L25.6054 27.0017L21.4542 22.97Z" fill="#253A5A"/>
</svg>
