<svg width="35" height="35" viewBox="0 0 35 35" fill="none" xmlns="http://www.w3.org/2000/svg">
<path fill-rule="evenodd" clip-rule="evenodd" d="M19.6352 21.671C19.7722 21.7557 19.8688 21.812 19.9249 21.8403C19.9815 21.8681 20.0641 21.9027 20.1725 21.9426C20.2811 21.9828 20.3717 22.0029 20.4443 22.0029C20.5891 22.0029 20.7745 21.8885 20.9997 21.6588C21.2297 21.4241 21.4435 21.174 21.6395 20.9103C21.8392 20.6424 22.0613 20.3919 22.3034 20.1616C22.5448 19.9322 22.7459 19.8177 22.9069 19.8177C23.0197 19.8177 23.1343 19.8458 23.251 19.9021C23.3679 19.9585 23.5106 20.045 23.6799 20.1616C23.8488 20.2785 23.9494 20.3489 23.9815 20.3731C24.1827 20.4935 24.398 20.6184 24.6277 20.7471C24.8569 20.876 25.1126 21.0169 25.3943 21.17C25.6132 21.2878 25.8304 21.4085 26.0461 21.532C26.6098 21.8136 26.9156 22.027 26.9638 22.172C26.9882 22.2287 27.0003 22.3133 27 22.4262C27 22.6436 26.9599 22.9272 26.8792 23.2773C26.7988 23.6275 26.7146 23.9032 26.6258 24.1043C26.4567 24.5069 25.9656 24.9334 25.153 25.3843C24.3962 25.7946 23.6475 26 22.9072 26C22.6951 26.0001 22.4833 25.9861 22.2731 25.9579C22.068 25.9294 21.8367 25.8791 21.5788 25.8067C21.3213 25.7341 21.1301 25.6757 21.0055 25.6314C20.8806 25.5871 20.6571 25.5045 20.3354 25.384C20.0134 25.263 19.8161 25.1906 19.7437 25.1665C18.9549 24.8848 18.2505 24.5506 17.6307 24.1645C16.6002 23.5285 15.5358 22.661 14.4369 21.5623C13.3382 20.4637 12.4707 19.3992 11.8351 18.3689C11.4487 17.7491 11.1147 17.0449 10.833 16.256C10.8089 16.1836 10.7363 15.9864 10.6157 15.6642C10.5316 15.4416 10.4491 15.2183 10.3683 14.9945C10.3241 14.8697 10.2657 14.6785 10.1933 14.4209C10.1208 14.1633 10.0704 13.9319 10.0423 13.7266C10.0138 13.5165 9.99963 13.3047 10 13.0927C10 12.3523 10.2052 11.6036 10.6157 10.8471C11.0665 10.0342 11.4932 9.54342 11.8957 9.37435C12.0968 9.28568 12.3725 9.20129 12.7227 9.12089C13.0729 9.0402 13.3566 9 13.5741 9C13.6867 9 13.7712 9.01227 13.8275 9.03636C13.9725 9.08454 14.1858 9.39046 14.4675 9.95383C14.5562 10.1068 14.6768 10.3242 14.8297 10.6057C14.9688 10.8623 15.1096 11.1179 15.2523 11.3725C15.3741 11.5894 15.4988 11.8047 15.6265 12.0183C15.6508 12.0507 15.7211 12.151 15.8379 12.3201C15.9548 12.4891 16.0412 12.6319 16.0975 12.7488C16.1539 12.8656 16.1821 12.9802 16.1821 13.0929C16.1821 13.254 16.0673 13.4549 15.8379 13.6966C15.6077 13.9388 15.3572 14.1609 15.0893 14.3604C14.8256 14.5566 14.5756 14.7703 14.3408 15.0002C14.1114 15.2256 13.9966 15.4108 13.9966 15.5556C13.9966 15.628 14.0169 15.7186 14.0571 15.8273C14.0971 15.9359 14.1314 16.0183 14.1595 16.0747C14.1877 16.1313 14.244 16.2276 14.3286 16.3646C14.4131 16.5015 14.4595 16.5777 14.4675 16.594C15.0792 17.6966 15.7796 18.6425 16.5683 19.4314C17.3572 20.22 18.3031 20.9203 19.4059 21.532C19.4218 21.5402 19.4982 21.5866 19.6352 21.671Z" fill="#253A5A"/>
</svg>
