<svg width="18" height="16" viewBox="0 0 18 16" fill="none" xmlns="http://www.w3.org/2000/svg">
<path d="M15.3 3.55556H14.4V2.66667C14.4 1.95942 14.1155 1.28115 13.6092 0.781049C13.1028 0.280952 12.4161 0 11.7 0H2.7C1.98392 0 1.29716 0.280952 0.790812 0.781049C0.284464 1.28115 0 1.95942 0 2.66667V13.3333C0 14.0406 0.284464 14.7189 0.790812 15.219C1.29716 15.719 1.98392 16 2.7 16H15.3C16.0161 16 16.7028 15.719 17.2092 15.219C17.7155 14.7189 18 14.0406 18 13.3333V6.22222C18 5.51498 17.7155 4.8367 17.2092 4.3366C16.7028 3.83651 16.0161 3.55556 15.3 3.55556ZM2.7 1.77778H11.7C11.9387 1.77778 12.1676 1.87143 12.3364 2.03813C12.5052 2.20483 12.6 2.43092 12.6 2.66667V3.55556H2.7C2.46131 3.55556 2.23239 3.4619 2.0636 3.29521C1.89482 3.12851 1.8 2.90241 1.8 2.66667C1.8 2.43092 1.89482 2.20483 2.0636 2.03813C2.23239 1.87143 2.46131 1.77778 2.7 1.77778ZM16.2 10.6667H15.3C15.0613 10.6667 14.8324 10.573 14.6636 10.4063C14.4948 10.2396 14.4 10.0135 14.4 9.77778C14.4 9.54203 14.4948 9.31594 14.6636 9.14924C14.8324 8.98254 15.0613 8.88889 15.3 8.88889H16.2V10.6667ZM16.2 7.11111H15.3C14.5839 7.11111 13.8972 7.39206 13.3908 7.89216C12.8845 8.39226 12.6 9.07053 12.6 9.77778C12.6 10.485 12.8845 11.1633 13.3908 11.6634C13.8972 12.1635 14.5839 12.4444 15.3 12.4444H16.2V13.3333C16.2 13.5691 16.1052 13.7952 15.9364 13.9619C15.7676 14.1286 15.5387 14.2222 15.3 14.2222H2.7C2.46131 14.2222 2.23239 14.1286 2.0636 13.9619C1.89482 13.7952 1.8 13.5691 1.8 13.3333V5.18222C2.08914 5.28268 2.39349 5.33378 2.7 5.33333H15.3C15.5387 5.33333 15.7676 5.42698 15.9364 5.59368C16.1052 5.76038 16.2 5.98647 16.2 6.22222V7.11111Z" fill="#009BC9"/>
</svg>
