<svg width="16" height="16" viewBox="0 0 16 16" fill="none" xmlns="http://www.w3.org/2000/svg">
<path d="M14.328 10.808H10.704C10.4918 10.808 10.2883 10.8923 10.1383 11.0423C9.98829 11.1923 9.904 11.3958 9.904 11.608C9.904 11.8202 9.98829 12.0237 10.1383 12.1737C10.2883 12.3237 10.4918 12.408 10.704 12.408H12.624C11.7416 13.3302 10.6035 13.9675 9.35613 14.2379C8.10874 14.5084 6.80897 14.3997 5.62382 13.9258C4.43868 13.4519 3.4223 12.6345 2.70527 11.5785C1.98825 10.5226 1.60334 9.27637 1.6 8C1.6 7.78783 1.51571 7.58434 1.36569 7.43431C1.21566 7.28429 1.01217 7.2 0.8 7.2C0.587827 7.2 0.384344 7.28429 0.234315 7.43431C0.0842854 7.58434 0 7.78783 0 8C0.00422933 9.56224 0.465777 11.0891 1.32768 12.392C2.18959 13.695 3.41413 14.7171 4.85019 15.3322C6.28626 15.9473 7.87099 16.1284 9.40881 15.8533C10.9466 15.5782 12.3703 14.8588 13.504 13.784V15.2C13.504 15.4122 13.5883 15.6157 13.7383 15.7657C13.8883 15.9157 14.0918 16 14.304 16C14.5162 16 14.7197 15.9157 14.8697 15.7657C15.0197 15.6157 15.104 15.4122 15.104 15.2V11.6C15.102 11.3933 15.0201 11.1954 14.8755 11.0478C14.7308 10.9001 14.5346 10.8142 14.328 10.808ZM8 0C5.94911 0.00584975 3.97879 0.799131 2.496 2.216V0.8C2.496 0.587827 2.41171 0.384344 2.26169 0.234315C2.11166 0.0842854 1.90817 0 1.696 0C1.48383 0 1.28034 0.0842854 1.13031 0.234315C0.980286 0.384344 0.896 0.587827 0.896 0.8V4.4C0.896 4.61217 0.980286 4.81566 1.13031 4.96569C1.28034 5.11571 1.48383 5.2 1.696 5.2H5.296C5.50817 5.2 5.71166 5.11571 5.86169 4.96569C6.01171 4.81566 6.096 4.61217 6.096 4.4C6.096 4.18783 6.01171 3.98434 5.86169 3.83431C5.71166 3.68429 5.50817 3.6 5.296 3.6H3.376C4.25797 2.6783 5.39527 2.0412 6.64192 1.77049C7.88857 1.49977 9.18767 1.6078 10.3725 2.08069C11.5573 2.55358 12.5738 3.36977 13.2914 4.42448C14.009 5.4792 14.3951 6.72431 14.4 8C14.4 8.21217 14.4843 8.41566 14.6343 8.56569C14.7843 8.71571 14.9878 8.8 15.2 8.8C15.4122 8.8 15.6157 8.71571 15.7657 8.56569C15.9157 8.41566 16 8.21217 16 8C16 6.94943 15.7931 5.90914 15.391 4.93853C14.989 3.96793 14.3997 3.08601 13.6569 2.34315C12.914 1.60028 12.0321 1.011 11.0615 0.608964C10.0909 0.206926 9.05058 0 8 0Z" fill="#009BC9"/>
</svg>
