<svg width="18" height="19" viewBox="0 0 18 19" fill="none" xmlns="http://www.w3.org/2000/svg">
<path fill-rule="evenodd" clip-rule="evenodd" d="M13.8191 7.68193C13.8191 10.7653 11.2287 13.3639 7.90954 13.3639C4.59034 13.3639 2 10.7653 2 7.68193C2 4.59853 4.59034 2 7.90954 2C11.2287 2 13.8191 4.59853 13.8191 7.68193ZM12.4542 13.97C11.1684 14.8482 9.60096 15.3639 7.90954 15.3639C3.54122 15.3639 0 11.9245 0 7.68193C0 3.43932 3.54122 0 7.90954 0C12.2779 0 15.8191 3.43932 15.8191 7.68193C15.8191 9.57059 15.1173 11.3001 13.9532 12.6378L17.9989 16.567L16.6054 18.0017L12.4542 13.97Z" fill="#979EA0"/>
</svg>
