<svg width="15" height="17" viewBox="0 0 15 17" fill="none" xmlns="http://www.w3.org/2000/svg">
<path fill-rule="evenodd" clip-rule="evenodd" d="M13.4192 17C13.0115 13.738 10.944 12.498 7.99512 12.498C5.04622 12.498 2.9777 13.738 2.57099 17H0.995117C1.51275 12.93 4.39669 10.997 7.99512 10.997C11.5935 10.997 14.4775 12.93 14.9951 17H13.4192ZM7.99512 9.989C5.22909 9.989 2.9857 7.753 2.9857 4.994C2.9857 2.236 5.22909 0 7.99512 0C10.7611 0 13.0035 2.236 13.0035 4.994C13.0035 7.753 10.7611 9.989 7.99512 9.989ZM7.99512 1.665C7.11116 1.66341 6.26276 2.01321 5.63649 2.63749C5.01022 3.26177 4.65736 4.10941 4.6555 4.994C4.65736 5.87868 5.01019 6.72642 5.63643 7.35086C6.26267 7.9753 7.11107 8.32533 7.99512 8.324C8.87908 8.32533 9.72737 7.97527 10.3535 7.3508C10.9795 6.72633 11.3321 5.87859 11.3337 4.994C11.3329 4.55604 11.246 4.12253 11.0778 3.71821C10.9096 3.31389 10.6634 2.94668 10.3534 2.63755C10.0434 2.32843 9.67555 2.08344 9.27091 1.91656C8.86628 1.74969 8.43276 1.66421 7.99512 1.665Z" fill="#0499C5"/>
</svg>
