<svg width="20" height="20" viewBox="0 0 20 20" fill="none" xmlns="http://www.w3.org/2000/svg">
<path fill-rule="evenodd" clip-rule="evenodd" d="M16.918 0C17.7354 0 18.5193 0.324707 19.0973 0.902689C19.6753 1.48067 20 2.26458 20 3.08197V16.919C19.9997 17.7362 19.6749 18.5199 19.097 19.0977C18.519 19.6754 17.7352 20 16.918 20H3.08197C2.26475 20 1.48099 19.6754 0.903036 19.0977C0.325082 18.5199 0.000259848 17.7362 0 16.919L0 3.08197C0 2.26458 0.324707 1.48067 0.902689 0.902689C1.48067 0.324707 2.26458 0 3.08197 0H16.918Z" fill="#4F75A3"/>
<path fill-rule="evenodd" clip-rule="evenodd" d="M14.531 10.1672C14.531 10.1672 16.2587 7.72902 16.4312 6.93329C16.488 6.64715 16.3616 6.48643 16.0647 6.48643H14.5653C14.2223 6.48643 14.0959 6.63539 13.993 6.85294C13.993 6.85294 13.1826 8.57963 12.1958 9.66836C11.8792 10.0202 11.7185 10.126 11.5441 10.126C11.403 10.126 11.3373 10.0084 11.3373 9.6909V6.90488C11.3373 6.51289 11.2923 6.40118 10.9718 6.40118H8.56796C8.38471 6.40118 8.27398 6.50799 8.27398 6.65303C8.27398 7.01953 8.83549 7.10283 8.83549 8.09553V10.1436C8.83549 10.5562 8.81197 10.7159 8.61794 10.7159C8.10248 10.7159 6.87851 8.94221 6.19156 6.92839C6.05437 6.51583 5.90541 6.40118 5.51637 6.40118H4.01801C3.96862 6.39846 3.9192 6.40599 3.87286 6.42329C3.82652 6.44059 3.78426 6.46729 3.74873 6.50171C3.71321 6.53613 3.68519 6.57753 3.66643 6.6233C3.64768 6.66907 3.63859 6.71823 3.63975 6.76768C3.63975 7.16848 4.10915 9.02159 5.95147 11.5058C7.18818 13.1766 8.81295 14.0811 10.278 14.0811C11.1707 14.0811 11.3883 13.9322 11.3883 13.5549V12.2731C11.3883 11.9527 11.5147 11.8155 11.697 11.8155C11.9037 11.8155 12.2673 11.8811 13.1169 12.719C14.1234 13.6803 14.1949 14.0811 14.7417 14.0811H16.4243C16.5958 14.0811 16.7565 14.0008 16.7565 13.7146C16.7565 13.3373 16.2665 12.6621 15.508 11.8605C15.1994 11.449 14.6957 11.0021 14.5359 10.7963C14.3066 10.5562 14.3752 10.419 14.5359 10.1672H14.531Z" fill="white"/>
</svg>
