<svg width="15" height="16" viewBox="0 0 15 16" fill="none" xmlns="http://www.w3.org/2000/svg">
<path d="M6.31579 14.4H2.36842C2.15904 14.4 1.95823 14.3157 1.81018 14.1657C1.66212 14.0157 1.57895 13.8122 1.57895 13.6V2.4C1.57895 2.18783 1.66212 1.98434 1.81018 1.83431C1.95823 1.68429 2.15904 1.6 2.36842 1.6H6.31579V4C6.31579 4.63652 6.56532 5.24697 7.00948 5.69706C7.45365 6.14714 8.05607 6.4 8.68421 6.4H11.0526C11.0526 6.61217 11.1358 6.81566 11.2839 6.96569C11.4319 7.11571 11.6327 7.2 11.8421 7.2C12.0515 7.2 12.2523 7.11571 12.4003 6.96569C12.5484 6.81566 12.6316 6.61217 12.6316 6.4V5.6C12.6316 5.6 12.6316 5.6 12.6316 5.552C12.6234 5.47851 12.6075 5.4061 12.5842 5.336V5.264C12.5463 5.18174 12.4956 5.10613 12.4342 5.04L7.69737 0.24C7.63211 0.177773 7.55749 0.126465 7.47632 0.0879999C7.45275 0.0846081 7.42883 0.0846081 7.40526 0.0879999L7.15263 0H2.36842C1.74028 0 1.13786 0.252856 0.693695 0.702944C0.249529 1.15303 0 1.76348 0 2.4V13.6C0 14.2365 0.249529 14.847 0.693695 15.2971C1.13786 15.7471 1.74028 16 2.36842 16H6.31579C6.52517 16 6.72598 15.9157 6.87403 15.7657C7.02209 15.6157 7.10526 15.4122 7.10526 15.2C7.10526 14.9878 7.02209 14.7843 6.87403 14.6343C6.72598 14.4843 6.52517 14.4 6.31579 14.4ZM7.89474 2.728L9.93947 4.8H8.68421C8.47483 4.8 8.27402 4.71571 8.12597 4.56569C7.97791 4.41566 7.89474 4.21217 7.89474 4V2.728ZM3.94737 4.8C3.73799 4.8 3.53718 4.88429 3.38913 5.03431C3.24107 5.18434 3.15789 5.38783 3.15789 5.6C3.15789 5.81217 3.24107 6.01566 3.38913 6.16569C3.53718 6.31571 3.73799 6.4 3.94737 6.4H4.73684C4.94622 6.4 5.14703 6.31571 5.29508 6.16569C5.44314 6.01566 5.52632 5.81217 5.52632 5.6C5.52632 5.38783 5.44314 5.18434 5.29508 5.03431C5.14703 4.88429 4.94622 4.8 4.73684 4.8H3.94737ZM14.7079 9.488C14.6162 9.41282 14.509 9.35942 14.3942 9.33173C14.2795 9.30404 14.16 9.30277 14.0447 9.328C13.7454 9.39192 13.4361 9.39148 13.137 9.32672C12.8378 9.26195 12.5553 9.13429 12.3079 8.952C12.1727 8.85188 12.0096 8.79792 11.8421 8.79792C11.6746 8.79792 11.5115 8.85188 11.3763 8.952C11.1286 9.13385 10.8462 9.26123 10.5471 9.32598C10.248 9.39073 9.93885 9.39142 9.63947 9.328C9.52288 9.30259 9.40213 9.30428 9.28628 9.33294C9.17042 9.36159 9.06248 9.41647 8.97056 9.49346C8.87863 9.57044 8.80511 9.66753 8.75552 9.77743C8.70592 9.88733 8.68155 10.0072 8.68421 10.128V12C8.68298 12.5727 8.81366 13.1377 9.06584 13.6502C9.31802 14.1626 9.68475 14.6084 10.1368 14.952L11.3684 15.84C11.5051 15.9439 11.6713 16 11.8421 16C12.0129 16 12.1791 15.9439 12.3158 15.84L13.5474 14.912C13.9942 14.5725 14.3576 14.1331 14.6096 13.6281C14.8615 13.123 14.9951 12.5659 15 12V10.104C14.9992 9.98584 14.9726 9.86931 14.9221 9.7628C14.8716 9.65629 14.7985 9.56244 14.7079 9.488ZM13.4211 12C13.4248 12.3214 13.3555 12.6393 13.2186 12.9292C13.0817 13.2192 12.8809 13.4733 12.6316 13.672L11.8421 14.248L11.0526 13.672C10.8033 13.4733 10.6025 13.2192 10.4656 12.9292C10.3287 12.6393 10.2594 12.3214 10.2632 12V10.976C10.8153 10.9509 11.3549 10.8005 11.8421 10.536C12.3293 10.8005 12.8689 10.9509 13.4211 10.976V12ZM6.31579 11.24H3.94737C3.73799 11.24 3.53718 11.3243 3.38913 11.4743C3.24107 11.6243 3.15789 11.8278 3.15789 12.04C3.15789 12.2522 3.24107 12.4557 3.38913 12.6057C3.53718 12.7557 3.73799 12.84 3.94737 12.84H6.31579C6.52517 12.84 6.72598 12.7557 6.87403 12.6057C7.02209 12.4557 7.10526 12.2522 7.10526 12.04C7.10526 11.8278 7.02209 11.6243 6.87403 11.4743C6.72598 11.3243 6.52517 11.24 6.31579 11.24ZM7.10526 8.04H3.94737C3.73799 8.04 3.53718 8.12429 3.38913 8.27431C3.24107 8.42434 3.15789 8.62783 3.15789 8.84C3.15789 9.05217 3.24107 9.25566 3.38913 9.40569C3.53718 9.55571 3.73799 9.64 3.94737 9.64H7.10526C7.31464 9.64 7.51545 9.55571 7.66351 9.40569C7.81156 9.25566 7.89474 9.05217 7.89474 8.84C7.89474 8.62783 7.81156 8.42434 7.66351 8.27431C7.51545 8.12429 7.31464 8.04 7.10526 8.04Z" fill="#fff"/>
</svg>