<svg width="20" height="20" viewBox="0 0 20 20" fill="none" xmlns="http://www.w3.org/2000/svg">
<path fill-rule="evenodd" clip-rule="evenodd" d="M16.918 0C17.7354 0 18.5193 0.324707 19.0973 0.902689C19.6753 1.48067 20 2.26458 20 3.08197V16.919C19.9997 17.7362 19.6749 18.5199 19.097 19.0977C18.519 19.6754 17.7352 20 16.918 20H3.08197C2.26475 20 1.48099 19.6754 0.903036 19.0977C0.325082 18.5199 0.000259848 17.7362 0 16.919L0 3.08197C0 2.26458 0.324707 1.48067 0.902689 0.902689C1.48067 0.324707 2.26458 0 3.08197 0H16.918Z" fill="#E53935"/>
<path d="M3.3133 13.14C3.59893 14.1244 4.47275 14.3046 4.53104 14.3391C5.96913 14.7197 14.0299 14.7209 15.4895 14.3391C16.4893 14.0582 16.6729 13.1967 16.7073 13.14C17.0879 11.1723 17.113 8.60701 16.6898 6.37421L16.7073 6.48523C16.4217 5.5008 15.5478 5.32068 15.4895 5.28613C14.0707 4.91174 5.98895 4.89757 4.53104 5.28613C3.53131 5.56764 3.34769 6.42859 3.3133 6.48523C2.90583 8.5532 2.88543 10.9259 3.3133 13.14ZM8.6098 11.8809V7.75003L12.2624 9.81857L8.6098 11.8809Z" fill="white"/>
</svg>
